<svg width="1280" height="780" viewBox="0 0 1280 780" fill="none" xmlns="http://www.w3.org/2000/svg">
<rect x="0.75" y="0.75" width="1278.5" height="778.5" rx="27.25" fill="#0E1420"/>
<rect x="0.75" y="0.75" width="1278.5" height="778.5" rx="27.25" stroke="#27364A" stroke-width="1.5"/>
<text fill="#E8EDF5" style="white-space: pre" xml:space="preserve" font-family="Inter" font-size="34" font-weight="bold" letter-spacing="0em"><tspan x="54" y="76.8636">Daily AI-First workflow</tspan></text>
<text fill="#9AA8BC" style="white-space: pre" xml:space="preserve" font-family="Inter" font-size="16" letter-spacing="0em"><tspan x="56" y="111.318">A normal task moves through a predictable engineering loop</tspan></text>
<rect x="365.75" y="150.75" width="548.5" height="66.5" rx="17.25" fill="#151D2A"/>
<rect x="365.75" y="150.75" width="548.5" height="66.5" rx="17.25" stroke="#4C8DFF" stroke-width="1.5"/>
<g clip-path="url(#clip0_6_2)">
<circle cx="404.5" cy="184" r="17" fill="#4C8DFF" fill-opacity="0.16" stroke="#4C8DFF" stroke-width="2"/>
<path d="M404.5 190C407.814 190 410.5 187.314 410.5 184C410.5 180.686 407.814 178 404.5 178C401.186 178 398.5 180.686 398.5 184C398.5 187.314 401.186 190 404.5 190Z" stroke="#E8EDF5" stroke-width="1.5" stroke-linecap="round" stroke-linejoin="round"/>
<path d="M404.5 187C406.157 187 407.5 185.657 407.5 184C407.5 182.343 406.157 181 404.5 181C402.843 181 401.5 182.343 401.5 184C401.5 185.657 402.843 187 404.5 187Z" stroke="#E8EDF5" stroke-width="1.5" stroke-linecap="round" stroke-linejoin="round"/>
<path d="M404.5 184.75C404.914 184.75 405.25 184.414 405.25 184C405.25 183.586 404.914 183.25 404.5 183.25C404.086 183.25 403.75 183.586 403.75 184C403.75 184.414 404.086 184.75 404.5 184.75Z" stroke="#E8EDF5" stroke-width="1.5" stroke-linecap="round" stroke-linejoin="round"/>
</g>
<g clip-path="url(#clip1_6_2)">
<text fill="#E8EDF5" style="white-space: pre" xml:space="preserve" font-family="Inter" font-size="20" font-weight="600" letter-spacing="0em"><tspan x="438.5" y="180.773">Goal</tspan></text>
<text fill="#9AA8BC" style="white-space: pre" xml:space="preserve" font-family="Inter" font-size="14" letter-spacing="0em"><tspan x="438.5" y="203.091">human intent</tspan></text>
</g>
<rect x="365.75" y="242.75" width="548.5" height="66.5" rx="17.25" fill="#151D2A"/>
<rect x="365.75" y="242.75" width="548.5" height="66.5" rx="17.25" stroke="#9C7CFF" stroke-width="1.5"/>
<g clip-path="url(#clip2_6_2)">
<circle cx="404.5" cy="276" r="17" fill="#9C7CFF" fill-opacity="0.16" stroke="#9C7CFF" stroke-width="2"/>
<path d="M399.25 271.5H409.75M399.25 276H409.75M399.25 280.5H409.75M397 271.5H397.007M397 276H397.007M397 280.5H397.007" stroke="#E8EDF5" stroke-width="1.5" stroke-linecap="round" stroke-linejoin="round"/>
</g>
<g clip-path="url(#clip3_6_2)">
<text fill="#E8EDF5" style="white-space: pre" xml:space="preserve" font-family="Inter" font-size="20" font-weight="600" letter-spacing="0em"><tspan x="438.5" y="272.773">Plan</tspan></text>
<text fill="#9AA8BC" style="white-space: pre" xml:space="preserve" font-family="Inter" font-size="14" letter-spacing="0em"><tspan x="438.5" y="295.091">scope + route</tspan></text>
</g>
<rect x="365.75" y="334.75" width="548.5" height="66.5" rx="17.25" fill="#151D2A"/>
<rect x="365.75" y="334.75" width="548.5" height="66.5" rx="17.25" stroke="#F5B942" stroke-width="1.5"/>
<g clip-path="url(#clip4_6_2)">
<circle cx="404.5" cy="368" r="17" fill="#F5B942" fill-opacity="0.16" stroke="#F5B942" stroke-width="2"/>
<path d="M401.5 365L398.5 368L401.5 371M407.5 365L410.5 368L407.5 371M406 362.75L403 373.25" stroke="#E8EDF5" stroke-width="1.5" stroke-linecap="round" stroke-linejoin="round"/>
</g>
<g clip-path="url(#clip5_6_2)">
<text fill="#E8EDF5" style="white-space: pre" xml:space="preserve" font-family="Inter" font-size="20" font-weight="600" letter-spacing="0em"><tspan x="438.5" y="364.773">Implement</tspan></text>
<text fill="#9AA8BC" style="white-space: pre" xml:space="preserve" font-family="Inter" font-size="14" letter-spacing="0em"><tspan x="438.5" y="387.091">bounded AI work</tspan></text>
</g>
<rect x="365.75" y="426.75" width="548.5" height="66.5" rx="17.25" fill="#151D2A"/>
<rect x="365.75" y="426.75" width="548.5" height="66.5" rx="17.25" stroke="#43C7E8" stroke-width="1.5"/>
<g clip-path="url(#clip6_6_2)">
<circle cx="404.5" cy="460" r="17" fill="#43C7E8" fill-opacity="0.16" stroke="#43C7E8" stroke-width="2"/>
<path d="M401.5 460L403.375 461.875L407.5 457.75M404.5 466.75C405.386 466.75 406.264 466.575 407.083 466.236C407.902 465.897 408.646 465.4 409.273 464.773C409.9 464.146 410.397 463.402 410.736 462.583C411.075 461.764 411.25 460.886 411.25 460C411.25 459.114 411.075 458.236 410.736 457.417C410.397 456.598 409.9 455.854 409.273 455.227C408.646 454.6 407.902 454.103 407.083 453.764C406.264 453.425 405.386 453.25 404.5 453.25C402.71 453.25 400.993 453.961 399.727 455.227C398.461 456.493 397.75 458.21 397.75 460C397.75 461.79 398.461 463.507 399.727 464.773C400.993 466.039 402.71 466.75 404.5 466.75Z" stroke="#E8EDF5" stroke-width="1.5" stroke-linecap="round" stroke-linejoin="round"/>
</g>
<g clip-path="url(#clip7_6_2)">
<text fill="#E8EDF5" style="white-space: pre" xml:space="preserve" font-family="Inter" font-size="20" font-weight="600" letter-spacing="0em"><tspan x="438.5" y="456.773">Validate</tspan></text>
<text fill="#9AA8BC" style="white-space: pre" xml:space="preserve" font-family="Inter" font-size="14" letter-spacing="0em"><tspan x="438.5" y="479.091">project evidence</tspan></text>
</g>
<rect x="365.75" y="518.75" width="548.5" height="66.5" rx="17.25" fill="#151D2A"/>
<rect x="365.75" y="518.75" width="548.5" height="66.5" rx="17.25" stroke="#4FD1A3" stroke-width="1.5"/>
<g clip-path="url(#clip8_6_2)">
<circle cx="404.5" cy="552" r="17" fill="#4FD1A3" fill-opacity="0.16" stroke="#4FD1A3" stroke-width="2"/>
<path d="M397 552C397 552 399.625 547.5 404.5 547.5C409.375 547.5 412 552 412 552C412 552 409.375 556.5 404.5 556.5C399.625 556.5 397 552 397 552Z" stroke="#E8EDF5" stroke-width="1.5" stroke-linecap="round" stroke-linejoin="round"/>
<path d="M404.5 553.875C405.536 553.875 406.375 553.036 406.375 552C406.375 550.964 405.536 550.125 404.5 550.125C403.464 550.125 402.625 550.964 402.625 552C402.625 553.036 403.464 553.875 404.5 553.875Z" stroke="#E8EDF5" stroke-width="1.5" stroke-linecap="round" stroke-linejoin="round"/>
</g>
<g clip-path="url(#clip9_6_2)">
<text fill="#E8EDF5" style="white-space: pre" xml:space="preserve" font-family="Inter" font-size="20" font-weight="600" letter-spacing="0em"><tspan x="438.5" y="548.773">Review</tspan></text>
<text fill="#9AA8BC" style="white-space: pre" xml:space="preserve" font-family="Inter" font-size="14" letter-spacing="0em"><tspan x="438.5" y="571.091">independent check</tspan></text>
</g>
<rect x="365.75" y="610.75" width="548.5" height="66.5" rx="17.25" fill="#151D2A"/>
<rect x="365.75" y="610.75" width="548.5" height="66.5" rx="17.25" stroke="#4C8DFF" stroke-width="1.5"/>
<g clip-path="url(#clip10_6_2)">
<circle cx="404.5" cy="644" r="17" fill="#4C8DFF" fill-opacity="0.16" stroke="#4C8DFF" stroke-width="2"/>
<path d="M403 642.5L406 645.5L409.75 641.75C410.5 639.5 410.5 638 410.5 637.25C409.75 637.25 408.25 637.25 406 638L403 642.5ZM403 642.5L400 643.25L397.75 645.5L401.5 646.25L402.25 650L404.5 647.75L405.25 644.75M399.25 649.25L397.75 650.75" stroke="#E8EDF5" stroke-width="1.5" stroke-linecap="round" stroke-linejoin="round"/>
</g>
<g clip-path="url(#clip11_6_2)">
<text fill="#E8EDF5" style="white-space: pre" xml:space="preserve" font-family="Inter" font-size="20" font-weight="600" letter-spacing="0em"><tspan x="438.5" y="640.773">Deliver</tspan></text>
<text fill="#9AA8BC" style="white-space: pre" xml:space="preserve" font-family="Inter" font-size="14" letter-spacing="0em"><tspan x="438.5" y="663.091">human merge gate</tspan></text>
</g>
<g clip-path="url(#clip12_6_2)">
<path d="M641.5 218V241M647.5 235L641.5 241L635.5 235" stroke="#4C8DFF" stroke-width="3" stroke-linecap="round" stroke-linejoin="round"/>
</g>
<g clip-path="url(#clip13_6_2)">
<path d="M641.5 310V333M647.5 327L641.5 333L635.5 327" stroke="#4C8DFF" stroke-width="3" stroke-linecap="round" stroke-linejoin="round"/>
</g>
<g clip-path="url(#clip14_6_2)">
<path d="M641.5 402V425M647.5 419L641.5 425L635.5 419" stroke="#4C8DFF" stroke-width="3" stroke-linecap="round" stroke-linejoin="round"/>
</g>
<g clip-path="url(#clip15_6_2)">
<path d="M641.5 494V517M647.5 511L641.5 517L635.5 511" stroke="#4C8DFF" stroke-width="3" stroke-linecap="round" stroke-linejoin="round"/>
</g>
<g clip-path="url(#clip16_6_2)">
<path d="M641.5 586V609M647.5 603L641.5 609L635.5 603" stroke="#4C8DFF" stroke-width="3" stroke-linecap="round" stroke-linejoin="round"/>
</g>
<defs>
<clipPath id="clip0_6_2">
<rect width="36" height="36" fill="white" transform="translate(386.5 166)"/>
</clipPath>
<clipPath id="clip1_6_2">
<rect width="455" height="45" fill="white" transform="translate(438.5 161.5)"/>
</clipPath>
<clipPath id="clip2_6_2">
<rect width="36" height="36" fill="white" transform="translate(386.5 258)"/>
</clipPath>
<clipPath id="clip3_6_2">
<rect width="455" height="45" fill="white" transform="translate(438.5 253.5)"/>
</clipPath>
<clipPath id="clip4_6_2">
<rect width="36" height="36" fill="white" transform="translate(386.5 350)"/>
</clipPath>
<clipPath id="clip5_6_2">
<rect width="455" height="45" fill="white" transform="translate(438.5 345.5)"/>
</clipPath>
<clipPath id="clip6_6_2">
<rect width="36" height="36" fill="white" transform="translate(386.5 442)"/>
</clipPath>
<clipPath id="clip7_6_2">
<rect width="455" height="45" fill="white" transform="translate(438.5 437.5)"/>
</clipPath>
<clipPath id="clip8_6_2">
<rect width="36" height="36" fill="white" transform="translate(386.5 534)"/>
</clipPath>
<clipPath id="clip9_6_2">
<rect width="455" height="45" fill="white" transform="translate(438.5 529.5)"/>
</clipPath>
<clipPath id="clip10_6_2">
<rect width="36" height="36" fill="white" transform="translate(386.5 626)"/>
</clipPath>
<clipPath id="clip11_6_2">
<rect width="455" height="45" fill="white" transform="translate(438.5 621.5)"/>
</clipPath>
<clipPath id="clip12_6_2">
<rect width="16" height="24" fill="white" transform="translate(633.5 218)"/>
</clipPath>
<clipPath id="clip13_6_2">
<rect width="16" height="24" fill="white" transform="translate(633.5 310)"/>
</clipPath>
<clipPath id="clip14_6_2">
<rect width="16" height="24" fill="white" transform="translate(633.5 402)"/>
</clipPath>
<clipPath id="clip15_6_2">
<rect width="16" height="24" fill="white" transform="translate(633.5 494)"/>
</clipPath>
<clipPath id="clip16_6_2">
<rect width="16" height="24" fill="white" transform="translate(633.5 586)"/>
</clipPath>
</defs>
</svg>
