<svg width="1280" height="780" viewBox="0 0 1280 780" fill="none" xmlns="http://www.w3.org/2000/svg">
<rect x="0.75" y="0.75" width="1278.5" height="778.5" rx="27.25" fill="#0E1420"/>
<rect x="0.75" y="0.75" width="1278.5" height="778.5" rx="27.25" stroke="#27364A" stroke-width="1.5"/>
<text fill="#E8EDF5" style="white-space: pre" xml:space="preserve" font-family="Inter" font-size="34" font-weight="bold" letter-spacing="0em"><tspan x="54" y="76.8636">Validation and enforcement</tspan></text>
<text fill="#9AA8BC" style="white-space: pre" xml:space="preserve" font-family="Inter" font-size="16" letter-spacing="0em"><tspan x="56" y="111.318">Enforcement is explicit: config &#x2192; workflow &#x2192; required check</tspan></text>
<rect x="315.75" y="150.75" width="648.5" height="76.5" rx="17.25" fill="#151D2A"/>
<rect x="315.75" y="150.75" width="648.5" height="76.5" rx="17.25" stroke="#FF6B7A" stroke-width="1.5"/>
<g clip-path="url(#clip0_6_39)">
<circle cx="354.5" cy="189" r="17" fill="#FF6B7A" fill-opacity="0.16" stroke="#FF6B7A" stroke-width="2"/>
<path d="M352.25 189L353.75 190.5L356.75 187.5M354.5 182.25L359.75 184.5V188.25C359.75 191.625 357.65 194.1 354.5 195.75C351.35 194.1 349.25 191.625 349.25 188.25V184.5L354.5 182.25Z" stroke="#E8EDF5" stroke-width="1.5" stroke-linecap="round" stroke-linejoin="round"/>
</g>
<g clip-path="url(#clip1_6_39)">
<text fill="#E8EDF5" style="white-space: pre" xml:space="preserve" font-family="Inter" font-size="20" font-weight="600" letter-spacing="0em"><tspan x="388.5" y="185.773">Configure policy</tspan></text>
<text fill="#9AA8BC" style="white-space: pre" xml:space="preserve" font-family="Inter" font-size="14" letter-spacing="0em"><tspan x="388.5" y="208.091">protected paths + review</tspan></text>
</g>
<rect x="315.75" y="258.75" width="648.5" height="76.5" rx="17.25" fill="#151D2A"/>
<rect x="315.75" y="258.75" width="648.5" height="76.5" rx="17.25" stroke="#43C7E8" stroke-width="1.5"/>
<g clip-path="url(#clip2_6_39)">
<circle cx="354.5" cy="297" r="17" fill="#43C7E8" fill-opacity="0.16" stroke="#43C7E8" stroke-width="2"/>
<path d="M351.5 297L353.375 298.875L357.5 294.75M354.5 303.75C355.386 303.75 356.264 303.575 357.083 303.236C357.902 302.897 358.646 302.4 359.273 301.773C359.9 301.146 360.397 300.402 360.736 299.583C361.075 298.764 361.25 297.886 361.25 297C361.25 296.114 361.075 295.236 360.736 294.417C360.397 293.598 359.9 292.854 359.273 292.227C358.646 291.6 357.902 291.103 357.083 290.764C356.264 290.425 355.386 290.25 354.5 290.25C352.71 290.25 350.993 290.961 349.727 292.227C348.461 293.493 347.75 295.21 347.75 297C347.75 298.79 348.461 300.507 349.727 301.773C350.993 303.039 352.71 303.75 354.5 303.75Z" stroke="#E8EDF5" stroke-width="1.5" stroke-linecap="round" stroke-linejoin="round"/>
</g>
<g clip-path="url(#clip3_6_39)">
<text fill="#E8EDF5" style="white-space: pre" xml:space="preserve" font-family="Inter" font-size="20" font-weight="600" letter-spacing="0em"><tspan x="388.5" y="293.773">Configure validation</tspan></text>
<text fill="#9AA8BC" style="white-space: pre" xml:space="preserve" font-family="Inter" font-size="14" letter-spacing="0em"><tspan x="388.5" y="316.091">affected/full commands</tspan></text>
</g>
<rect x="315.75" y="366.75" width="648.5" height="76.5" rx="17.25" fill="#151D2A"/>
<rect x="315.75" y="366.75" width="648.5" height="76.5" rx="17.25" stroke="#4C8DFF" stroke-width="1.5"/>
<g clip-path="url(#clip4_6_39)">
<circle cx="354.5" cy="405" r="17" fill="#4C8DFF" fill-opacity="0.16" stroke="#4C8DFF" stroke-width="2"/>
<path d="M353.75 402H356C356.597 402 357.169 402.237 357.591 402.659C358.013 403.081 358.25 403.653 358.25 404.25V405.75M351.5 404.25V406.5C351.5 407.097 351.737 407.669 352.159 408.091C352.581 408.513 353.153 408.75 353.75 408.75H355.25M349.25 399.75H353.75V404.25H349.25V399.75ZM355.25 405.75H359.75V410.25H355.25V405.75Z" stroke="#E8EDF5" stroke-width="1.5" stroke-linecap="round" stroke-linejoin="round"/>
</g>
<g clip-path="url(#clip5_6_39)">
<text fill="#E8EDF5" style="white-space: pre" xml:space="preserve" font-family="Inter" font-size="20" font-weight="600" letter-spacing="0em"><tspan x="388.5" y="401.773">Install enforcement</tspan></text>
<text fill="#9AA8BC" style="white-space: pre" xml:space="preserve" font-family="Inter" font-size="14" letter-spacing="0em"><tspan x="388.5" y="424.091">generated GitHub Actions workflow</tspan></text>
</g>
<rect x="315.75" y="474.75" width="648.5" height="76.5" rx="17.25" fill="#151D2A"/>
<rect x="315.75" y="474.75" width="648.5" height="76.5" rx="17.25" stroke="#9C7CFF" stroke-width="1.5"/>
<g clip-path="url(#clip6_6_39)">
<circle cx="354.5" cy="513" r="17" fill="#9C7CFF" fill-opacity="0.16" stroke="#9C7CFF" stroke-width="2"/>
<path d="M350 509.25C350.828 509.25 351.5 508.578 351.5 507.75C351.5 506.922 350.828 506.25 350 506.25C349.172 506.25 348.5 506.922 348.5 507.75C348.5 508.578 349.172 509.25 350 509.25Z" stroke="#E8EDF5" stroke-width="1.5" stroke-linecap="round" stroke-linejoin="round"/>
<path d="M359 519.75C359.828 519.75 360.5 519.078 360.5 518.25C360.5 517.422 359.828 516.75 359 516.75C358.172 516.75 357.5 517.422 357.5 518.25C357.5 519.078 358.172 519.75 359 519.75Z" stroke="#E8EDF5" stroke-width="1.5" stroke-linecap="round" stroke-linejoin="round"/>
<path d="M350 509.25V516.75M359 516.75V510.75C359 509.954 358.684 509.191 358.121 508.629C357.559 508.066 356.796 507.75 356 507.75H354.5M356 505.5L353.75 507.75L356 510" stroke="#E8EDF5" stroke-width="1.5" stroke-linecap="round" stroke-linejoin="round"/>
</g>
<g clip-path="url(#clip7_6_39)">
<text fill="#E8EDF5" style="white-space: pre" xml:space="preserve" font-family="Inter" font-size="20" font-weight="600" letter-spacing="0em"><tspan x="388.5" y="509.773">Pull request</tspan></text>
<text fill="#9AA8BC" style="white-space: pre" xml:space="preserve" font-family="Inter" font-size="14" letter-spacing="0em"><tspan x="388.5" y="532.091">policy + validation + optional review</tspan></text>
</g>
<rect x="315.75" y="582.75" width="648.5" height="76.5" rx="17.25" fill="#151D2A"/>
<rect x="315.75" y="582.75" width="648.5" height="76.5" rx="17.25" stroke="#F5B942" stroke-width="1.5"/>
<g clip-path="url(#clip8_6_39)">
<circle cx="354.5" cy="621" r="17" fill="#F5B942" fill-opacity="0.16" stroke="#F5B942" stroke-width="2"/>
<path d="M350 619.5V618C350 616.807 350.474 615.662 351.318 614.818C352.162 613.974 353.307 613.5 354.5 613.5C355.693 613.5 356.838 613.974 357.682 614.818C358.526 615.662 359 616.807 359 618V619.5M352.25 623.25L353.75 624.75L356.75 621.75M349.25 619.5H359.75V627.75H349.25V619.5Z" stroke="#E8EDF5" stroke-width="1.5" stroke-linecap="round" stroke-linejoin="round"/>
</g>
<g clip-path="url(#clip9_6_39)">
<text fill="#E8EDF5" style="white-space: pre" xml:space="preserve" font-family="Inter" font-size="20" font-weight="600" letter-spacing="0em"><tspan x="388.5" y="617.773">Required status check</tspan></text>
<text fill="#9AA8BC" style="white-space: pre" xml:space="preserve" font-family="Inter" font-size="14" letter-spacing="0em"><tspan x="388.5" y="640.091">repository rules decide merge blocking</tspan></text>
</g>
<text fill="#E8EDF5" style="white-space: pre" xml:space="preserve" font-family="Inter" font-size="16" font-weight="600" letter-spacing="0em"><tspan x="345" y="725.318">Nothing is installed silently by init, install, or harness audit.</tspan></text>
<g clip-path="url(#clip10_6_39)">
<path d="M641.5 228V257M647.5 251L641.5 257L635.5 251" stroke="#4C8DFF" stroke-width="3" stroke-linecap="round" stroke-linejoin="round"/>
</g>
<g clip-path="url(#clip11_6_39)">
<path d="M641.5 336V365M647.5 359L641.5 365L635.5 359" stroke="#4C8DFF" stroke-width="3" stroke-linecap="round" stroke-linejoin="round"/>
</g>
<g clip-path="url(#clip12_6_39)">
<path d="M641.5 444V473M647.5 467L641.5 473L635.5 467" stroke="#4C8DFF" stroke-width="3" stroke-linecap="round" stroke-linejoin="round"/>
</g>
<g clip-path="url(#clip13_6_39)">
<path d="M641.5 552V581M647.5 575L641.5 581L635.5 575" stroke="#4C8DFF" stroke-width="3" stroke-linecap="round" stroke-linejoin="round"/>
</g>
<defs>
<clipPath id="clip0_6_39">
<rect width="36" height="36" fill="white" transform="translate(336.5 171)"/>
</clipPath>
<clipPath id="clip1_6_39">
<rect width="555" height="45" fill="white" transform="translate(388.5 166.5)"/>
</clipPath>
<clipPath id="clip2_6_39">
<rect width="36" height="36" fill="white" transform="translate(336.5 279)"/>
</clipPath>
<clipPath id="clip3_6_39">
<rect width="555" height="45" fill="white" transform="translate(388.5 274.5)"/>
</clipPath>
<clipPath id="clip4_6_39">
<rect width="36" height="36" fill="white" transform="translate(336.5 387)"/>
</clipPath>
<clipPath id="clip5_6_39">
<rect width="555" height="45" fill="white" transform="translate(388.5 382.5)"/>
</clipPath>
<clipPath id="clip6_6_39">
<rect width="36" height="36" fill="white" transform="translate(336.5 495)"/>
</clipPath>
<clipPath id="clip7_6_39">
<rect width="555" height="45" fill="white" transform="translate(388.5 490.5)"/>
</clipPath>
<clipPath id="clip8_6_39">
<rect width="36" height="36" fill="white" transform="translate(336.5 603)"/>
</clipPath>
<clipPath id="clip9_6_39">
<rect width="555" height="45" fill="white" transform="translate(388.5 598.5)"/>
</clipPath>
<clipPath id="clip10_6_39">
<rect width="16" height="30" fill="white" transform="translate(633.5 228)"/>
</clipPath>
<clipPath id="clip11_6_39">
<rect width="16" height="30" fill="white" transform="translate(633.5 336)"/>
</clipPath>
<clipPath id="clip12_6_39">
<rect width="16" height="30" fill="white" transform="translate(633.5 444)"/>
</clipPath>
<clipPath id="clip13_6_39">
<rect width="16" height="30" fill="white" transform="translate(633.5 552)"/>
</clipPath>
</defs>
</svg>
